<svg viewBox="0 0 149 110" xmlns="http://www.w3.org/2000/svg">
  <path d="M1.99086 17.2285V16.9999C1.99086 6.22651 10.099 0 21.2358 0C32.3726 0 40.6155 6.04264 40.6155 16.9552V17.2732C40.6155 28.4541 32.6022 33.8706 21.2807 33.8706C9.68984 33.8706 1.99086 28.7721 1.99086 17.2285ZM32.7818 17.2285V17.1838C32.7818 9.60562 28.3909 6.81288 21.3057 6.81288C14.1057 6.81288 9.82955 9.83421 9.82955 17.139V17.1838C9.82955 23.9022 14.0857 27.013 21.2408 27.013C28.3959 27.013 32.7818 24.4886 32.7818 17.2285ZM53.7881 22.9978V32.9662H46.2737V0.809993H62.7395C74.969 0.809993 79.5395 4.28849 79.5395 12.13C79.5395 19.3454 74.1956 23.0922 63.4679 22.9978H53.7881ZM53.7881 7.17067V16.6421H63.0239C69.5902 16.6421 71.9004 15.5588 71.9004 12.0853C71.9004 7.6676 69.0014 7.17067 62.7943 7.17067H53.7881ZM82.9474 32.9662V25.9297H91.7341V7.54337H82.9474V0.809993H107.716V7.53343H98.9491V25.9198H107.731V32.9563L82.9474 32.9662ZM120.844 10.4852V32.9861H113.509V0.809993H121.118L140.722 22.64L140.997 23.0475V0.809993H148.286V32.9662H140.997L121.163 10.9125L120.844 10.4852ZM2.15053 71.4831V64.4466H10.9323V46.0603H2.15053V39.3319H26.899V46.0503H18.1173V64.4367H26.899V71.4732L2.15053 71.4831ZM121.208 48.9822V71.4831H113.873V39.3319H121.477L141.086 61.1718L141.361 61.5793V39.3319H148.651V71.4831H141.361L121.527 49.4294L121.208 48.9822ZM29.4338 103.008H11.546L8.19794 110H0L16.346 77.8488H24.3593L40.9797 110H32.8766L29.4338 103.008ZM20.3327 84.6567L14.4899 96.8761H26.3552L20.3327 84.6567ZM54.5415 84.2939V110H46.7727V84.2939H35.1818V77.8338H66.6962V84.2939H54.5415ZM107.696 110H71.8555V77.8488H107.721V84.2045H79.1453V90.6993H99.0689V97.055H79.1453V103.411H107.696V110ZM113.918 77.8488H128.952C142.174 77.8488 149.01 82.7186 149.01 93.989V94.2176C149.01 105.354 142.129 110 129.406 110H113.918V77.8488ZM121.402 84.3834V103.411H128.987C137.968 103.411 141.256 100.976 141.256 94.0784V93.9691C141.256 87.0121 137.813 84.4082 128.622 84.4082L121.402 84.3834ZM88.905 38.5219H49.2226C38.0808 38.5219 29.9676 44.7384 29.9676 55.5168V55.7404C29.9676 67.2841 37.6766 72.3875 49.2575 72.3875H88.9699C100.291 72.3875 108.3 66.976 108.3 55.7951V55.4771C108.28 44.5595 100.047 38.5219 88.905 38.5219ZM100.446 55.7504C100.446 63.0005 96.0701 65.52 88.9399 65.5299H49.2226C42.0625 65.5299 37.8063 62.4191 37.8063 55.7007V55.6559C37.8063 48.3561 42.0525 45.3397 49.2326 45.3298H88.9699C96.0751 45.3298 100.471 48.1325 100.471 55.7007L100.446 55.7504Z" fill="#000000"/>
</svg>

