<svg width="166" height="134" viewBox="0 0 166 134" fill="none" xmlns="http://www.w3.org/2000/svg">
<path d="M15.3101 0.612335L14.9224 0.563623L14.8737 0.951288L10.4498 36.158L10.4011 36.5456L10.7888 36.5943L18.6737 37.5851C12.8449 42.474 8.77445 49.4911 7.75112 57.6352C6.72779 65.7792 8.93561 73.5852 13.3737 79.7642L5.48879 78.7734L5.10113 78.7247L5.05242 79.1124L0.628549 114.319L0.579836 114.707L0.967501 114.755L125.063 130.349C140.506 132.289 153.322 118.823 155.354 102.647C156.671 92.1696 153.332 81.7066 146.634 75.0864C154.762 70.3291 160.585 61.0174 161.902 50.5398C163.934 34.3641 154.848 18.1459 139.406 16.2055L15.3101 0.612335Z" fill="white" stroke="black" stroke-width="0.781427"/>
<mask id="path-2-outside-1" maskUnits="userSpaceOnUse" x="5.08375" y="4.80589" width="156.217" height="124.118" fill="black">
<rect fill="white" x="5.08375" y="4.80589" width="156.217" height="124.118"/>
<path fill-rule="evenodd" clip-rule="evenodd" d="M16.0176 31.9765L156.966 49.6872C158.774 35.2982 150.646 22.428 138.81 20.9408L19.2914 5.92276L16.0176 31.9765ZM12.7439 58.0302C14.5519 43.6411 27.6823 33.4422 42.0713 35.2502L156.966 49.6872C155.158 64.0732 144.103 74.5308 132.271 73.0492C144.102 74.5409 152.226 87.4087 150.419 101.795C148.61 116.184 137.55 126.643 125.715 125.156L6.19635 110.138L9.47011 84.0838L35.5238 87.3576C21.1347 85.5495 10.9358 72.4192 12.7439 58.0302Z"/>
</mask>
<path fill-rule="evenodd" clip-rule="evenodd" d="M16.0176 31.9765L156.966 49.6872C158.774 35.2982 150.646 22.428 138.81 20.9408L19.2914 5.92276L16.0176 31.9765ZM12.7439 58.0302C14.5519 43.6411 27.6823 33.4422 42.0713 35.2502L156.966 49.6872C155.158 64.0732 144.103 74.5308 132.271 73.0492C144.102 74.5409 152.226 87.4087 150.419 101.795C148.61 116.184 137.55 126.643 125.715 125.156L6.19635 110.138L9.47011 84.0838L35.5238 87.3576C21.1347 85.5495 10.9358 72.4192 12.7439 58.0302Z" fill="white"/>
<path d="M156.966 49.6872L156.88 50.3737L157.566 50.46L157.653 49.7735L156.966 49.6872ZM16.0176 31.9765L15.3312 31.8902L15.2449 32.5767L15.9314 32.6629L16.0176 31.9765ZM19.2914 5.92276L19.3776 5.23629L18.6912 5.15003L18.6049 5.8365L19.2914 5.92276ZM156.966 49.6872L157.653 49.7735L157.739 49.087L157.052 49.0008L156.966 49.6872ZM132.271 73.0492L132.356 72.3627L132.184 73.7356L132.271 73.0492ZM6.19635 110.138L5.50988 110.051L5.42362 110.738L6.11009 110.824L6.19635 110.138ZM9.47011 84.0838L9.55637 83.3974L8.8699 83.3111L8.78364 83.9976L9.47011 84.0838ZM157.052 49.0008L16.1039 31.29L15.9314 32.6629L156.88 50.3737L157.052 49.0008ZM138.724 21.6273C150.061 23.0518 158.057 35.4595 156.28 49.601L157.653 49.7735C159.492 35.1369 151.23 21.8041 138.897 20.2544L138.724 21.6273ZM19.2051 6.60923L138.724 21.6273L138.897 20.2544L19.3776 5.23629L19.2051 6.60923ZM16.7041 32.0627L19.9779 6.00902L18.6049 5.8365L15.3312 31.8902L16.7041 32.0627ZM42.1576 34.5637C27.3894 32.7081 13.9131 43.1757 12.0574 57.9439L13.4303 58.1164C15.1907 44.1065 27.9751 34.1763 41.985 35.9367L42.1576 34.5637ZM157.052 49.0008L42.1576 34.5637L41.985 35.9367L156.88 50.3737L157.052 49.0008ZM132.185 73.7357C144.515 75.2797 155.814 64.407 157.653 49.7735L156.28 49.601C154.503 63.7394 143.69 73.7819 132.356 72.3627L132.185 73.7357ZM132.184 73.7356C143.517 75.1645 151.509 87.57 149.732 101.708L151.105 101.881C152.944 87.2474 144.686 73.9173 132.357 72.3627L132.184 73.7356ZM149.732 101.708C147.955 115.85 137.138 125.894 125.802 124.469L125.629 125.842C137.963 127.392 149.266 116.517 151.105 101.881L149.732 101.708ZM125.802 124.469L6.28261 109.451L6.11009 110.824L125.629 125.842L125.802 124.469ZM6.88283 110.224L10.1566 84.1701L8.78364 83.9976L5.50988 110.051L6.88283 110.224ZM9.38385 84.7703L35.4375 88.0441L35.6101 86.6711L9.55637 83.3974L9.38385 84.7703ZM35.6101 86.6711C21.6001 84.9107 11.6699 72.1263 13.4303 58.1164L12.0574 57.9439C10.2017 72.7121 20.6694 86.1884 35.4375 88.0441L35.6101 86.6711Z" fill="black" mask="url(#path-2-outside-1)"/>
<line x1="16.4002" y1="32.2319" x2="131.771" y2="46.7287" stroke="black" stroke-width="0.822723" stroke-linecap="round"/>
<line x1="9.91745" y1="83.8239" x2="125.288" y2="98.3208" stroke="black" stroke-width="0.822723" stroke-linecap="round"/>
<line x1="34.9049" y1="60.6982" x2="136.671" y2="73.4855" stroke="black" stroke-width="0.822723" stroke-linecap="round"/>
<path d="M32.241 29.4496C37.9237 30.1637 41.8723 28.4329 42.2544 25.2176C42.609 22.3957 40.5419 20.6807 35.3811 19.481L32.5456 18.816C30.5823 18.3709 29.7644 17.8932 29.838 17.3072C29.9633 16.485 31.6493 16.1677 33.8559 16.4229C36.2354 16.6999 38.695 17.7365 40.2386 19.0771L42.225 16.0193C40.4791 14.5431 37.509 13.3761 34.2464 12.9661C28.7366 12.2738 24.7396 13.6899 24.3196 17.0327C23.9732 19.7894 25.8973 21.4203 30.715 22.5549L33.5262 23.2388C35.8487 23.7953 36.7908 24.3326 36.7062 25.0055C36.6053 25.8086 35.157 26.1558 32.9747 25.8816C30.0145 25.5097 26.7963 24.0469 25.1829 22.3889L22.8155 25.5091C24.688 27.376 28.5246 28.9827 32.241 29.4496Z" fill="#000000"/>
<path d="M43.1413 30.3563L58.1798 32.2459L58.7008 28.0999L49.3017 26.9189L50.7337 15.5229L45.0942 14.8143L43.1413 30.3563Z" fill="#000000"/>
<path d="M59.8286 32.4531L76.3581 34.5301L76.7999 31.0136L65.7371 29.6235L66.0999 26.7365L76.0823 27.9909L76.4614 24.9736L66.479 23.7193L66.8063 21.1145L77.653 22.4774L78.0949 18.961L61.7816 16.9111L59.8286 32.4531Z" fill="#000000"/>
<path d="M77.8697 34.72L94.3991 36.797L94.841 33.2805L83.7781 31.8905L84.1409 29.0035L94.1234 30.2578L94.5025 27.2406L84.52 25.9862L84.8473 23.3814L95.6941 24.7444L96.136 21.2279L79.8226 19.1781L77.8697 34.72Z" fill="#000000"/>
<path d="M95.9108 36.987L101.55 37.6956L102.148 32.9418L108.932 33.7943C113.34 34.3482 116.019 32.7665 116.471 29.3396C116.913 25.8231 114.717 23.5627 110.331 23.0116L97.8637 21.445L95.9108 36.987ZM102.548 29.7509L103.102 25.3445L108.05 25.9662C110.016 26.2133 110.999 27.1305 110.821 28.5414C110.641 29.9741 109.463 30.6198 107.497 30.3727L102.548 29.7509Z" fill="#000000"/>
<path d="M85.4297 87.9666C91.5021 88.7296 95.9179 86.3131 96.4705 81.9159C97.023 77.5186 93.3423 74.0848 87.2699 73.3218C81.2167 72.5612 76.8009 74.9776 76.2484 79.3749C75.6958 83.7722 79.3766 87.206 85.4297 87.9666ZM85.8717 84.4488C82.8451 84.0685 80.9939 82.2822 81.2798 80.0071C81.5657 77.732 83.8013 76.4593 86.8278 76.8396C89.8544 77.2199 91.7249 79.0086 91.439 81.2837C91.1532 83.5588 88.8983 84.8291 85.8717 84.4488Z" fill="#000000"/>
<path d="M97.1961 88.9596L101.938 89.5555L103.075 80.5124L103.094 80.5148L109.399 90.4929L115.433 91.2511L117.153 77.5622L112.41 76.9663L111.289 85.8947L111.269 85.8922L104.969 76.0313L98.9162 75.2707L97.1961 88.9596Z" fill="#000000"/>
<path d="M12.8136 105.108L17.9489 105.753L19.7315 91.5657L14.5963 90.9204L12.8136 105.108Z" fill="#000000"/>
<path d="M25.2183 106.666L30.3932 107.316L31.7177 96.7752L37.2495 97.4703L37.7076 93.8245L21.4692 91.784L21.0111 95.4299L26.5428 96.125L25.2183 106.666Z" fill="#000000"/>
</svg>

